frame:0    pts:33792   pts_time:2.64
lavfi.scene_score=0.562189
frame:1    pts:54272   pts_time:4.24
lavfi.scene_score=1.000000
frame:2    pts:112640  pts_time:8.8
lavfi.scene_score=0.845654
frame:3    pts:165888  pts_time:12.96
lavfi.scene_score=0.527718
frame:4    pts:194560  pts_time:15.2
lavfi.scene_score=0.615106
frame:5    pts:264704  pts_time:20.68
lavfi.scene_score=1.000000
frame:6    pts:381440  pts_time:29.8
lavfi.scene_score=0.833917
frame:7    pts:410112  pts_time:32.04
lavfi.scene_score=0.798638
frame:8    pts:433152  pts_time:33.84
lavfi.scene_score=0.882020
frame:9    pts:503296  pts_time:39.32
lavfi.scene_score=0.757442
frame:10   pts:662016  pts_time:51.72
lavfi.scene_score=1.000000
frame:11   pts:726016  pts_time:56.72
lavfi.scene_score=0.887990
frame:12   pts:823808  pts_time:64.36
lavfi.scene_score=0.442491
frame:13   pts:833024  pts_time:65.08
lavfi.scene_score=0.461781
frame:14   pts:847872  pts_time:66.24
lavfi.scene_score=0.518862
frame:15   pts:907776  pts_time:70.92
lavfi.scene_score=0.476735
frame:16   pts:991744  pts_time:77.48
lavfi.scene_score=0.504108
frame:17   pts:1061888 pts_time:82.96
lavfi.scene_score=0.512308
frame:18   pts:1123328 pts_time:87.76
lavfi.scene_score=0.530911
frame:19   pts:1223168 pts_time:95.56
lavfi.scene_score=1.000000
frame:20   pts:1292800 pts_time:101
lavfi.scene_score=0.734588
frame:21   pts:1368576 pts_time:106.92
lavfi.scene_score=0.917102
frame:22   pts:1477120 pts_time:115.4
lavfi.scene_score=0.806097
frame:23   pts:1865728 pts_time:145.76
lavfi.scene_score=0.724133
frame:24   pts:1959424 pts_time:153.08
lavfi.scene_score=0.941046
frame:25   pts:2044928 pts_time:159.76
lavfi.scene_score=0.739164
frame:26   pts:2130432 pts_time:166.44
lavfi.scene_score=0.507335
frame:27   pts:2230784 pts_time:174.28
lavfi.scene_score=0.513900
frame:28   pts:2723328 pts_time:212.76
lavfi.scene_score=0.503072
frame:29   pts:2829824 pts_time:221.08
lavfi.scene_score=0.502002
frame:30   pts:2989568 pts_time:233.56
lavfi.scene_score=0.969598
frame:31   pts:3197952 pts_time:249.84
lavfi.scene_score=0.716802
frame:32   pts:3975168 pts_time:310.56
lavfi.scene_score=0.524152
frame:33   pts:4422656 pts_time:345.52
lavfi.scene_score=0.491247
